<?xml version="1.0" standalone="no"?>
<!DOCTYPE svg PUBLIC "-//W3C//DTD SVG 20010904//EN"
 "http://www.w3.org/TR/2001/REC-SVG-20010904/DTD/svg10.dtd">
<svg version="1.0" xmlns="http://www.w3.org/2000/svg"
 width="666.000000pt" height="375.000000pt" viewBox="0 0 666.000000 375.000000"
 preserveAspectRatio="xMidYMid meet">

<g transform="translate(0.000000,375.000000) scale(0.100000,-0.100000)"
fill="#000000" stroke="none">
<path d="M2798 3500 c-157 -25 -285 -68 -401 -134 -205 -117 -349 -289 -426
-508 -56 -160 -77 -370 -50 -500 36 -179 169 -497 300 -718 14 -25 66 -112
115 -195 94 -160 318 -498 434 -655 38 -52 87 -120 109 -150 63 -90 61 -90
116 -8 27 40 73 106 102 146 60 81 198 278 254 362 91 136 179 272 179 275 0
3 15 28 34 57 162 254 319 582 380 791 57 197 31 474 -64 684 -35 76 -117 202
-137 210 -7 3 -11 8 -10 12 2 3 -13 23 -35 44 -21 20 -38 35 -38 33 0 -2 -14
9 -31 25 -99 92 -267 172 -444 210 -104 22 -304 32 -387 19z m-500 -527 c2
-144 4 -153 22 -153 18 0 20 9 22 152 3 140 5 153 22 156 10 2 22 -2 27 -10 5
-7 9 -77 9 -155 0 -136 1 -143 20 -143 18 0 20 8 22 153 l3 152 25 0 25 0 3
-152 c2 -144 4 -153 22 -153 18 0 20 9 22 153 l3 152 25 0 25 0 3 -190 c3
-212 0 -227 -59 -280 l-39 -35 0 -399 0 -400 -26 -20 c-35 -27 -81 -27 -111 1
l-23 21 0 402 0 402 -26 13 c-14 8 -37 33 -50 56 -23 39 -24 48 -24 231 0 104
3 193 7 197 4 4 16 6 28 4 19 -3 20 -11 23 -155z m1287 147 c3 -6 6 -299 5
-652 -1 -642 -1 -642 -22 -665 -30 -32 -81 -31 -113 2 -25 24 -25 25 -25 232
l0 207 -42 44 -43 43 -3 236 c-3 214 -1 242 17 302 26 85 54 130 126 202 56
56 86 71 100 49z m-550 -175 c119 -31 259 -124 253 -169 -5 -34 -37 -31 -77 7
-77 75 -230 126 -336 113 -27 -4 -78 -16 -111 -28 -67 -23 -94 -20 -94 10 0
21 64 54 137 71 60 14 164 12 228 -4z m51 -156 c279 -141 274 -527 -8 -676
-49 -26 -62 -28 -163 -28 -106 0 -112 1 -173 34 -74 40 -134 104 -171 181 -23
48 -26 68 -26 155 0 89 3 106 28 157 70 143 205 222 365 214 70 -3 94 -9 148
-37z m232 -625 c4 -26 -96 -123 -164 -157 -151 -76 -336 -76 -476 0 -49 26
-60 50 -35 71 10 9 25 5 60 -13 175 -94 393 -61 526 77 49 51 84 60 89 22z
m-713 -44 c0 -18 -6 -26 -23 -28 -24 -4 -38 18 -28 44 3 9 15 14 28 12 17 -2
23 -10 23 -28z"/>
<path d="M2314 2731 c9 -16 31 -38 51 -49 l35 -21 2 -408 c3 -355 5 -408 18
-408 13 0 15 54 18 412 l2 413 34 14 c32 13 56 41 56 65 0 7 -40 11 -115 11
l-116 0 15 -29z"/>
<path d="M3499 2998 c-86 -111 -99 -165 -99 -424 0 -220 -2 -211 67 -280 23
-23 23 -27 23 -233 0 -204 5 -240 31 -214 5 5 8 248 7 596 l-3 587 -26 -32z"/>
<path d="M2845 2761 c-92 -24 -169 -85 -210 -167 -38 -77 -42 -193 -9 -265 31
-66 87 -124 152 -156 49 -24 69 -28 142 -28 72 0 92 4 135 27 63 33 117 87
147 147 33 67 33 207 0 269 -57 107 -149 169 -262 177 -36 2 -78 1 -95 -4z
m94 -75 c15 -18 4 -46 -18 -46 -27 0 -42 20 -30 42 12 21 32 23 48 4z m-81
-32 c2 -15 -8 -28 -38 -48 -49 -32 -77 -76 -86 -133 -6 -44 -27 -61 -50 -42
-46 38 24 189 111 238 30 16 60 9 63 -15z"/>
</g>
</svg>
